<svg xmlns="http://www.w3.org/2000/svg" width="125" height="125" viewBox="0 0 125 125">
  <defs>
    <style>
      .cls-1 {
        fill: #e8781d;
        fill-rule: evenodd;
      }
    </style>
  </defs>
  <path id="_2" data-name="2" class="cls-1" d="M64,1.5A62.5,62.5,0,1,1,1.5,64,62.5,62.5,0,0,1,64,1.5ZM85.464,85.192H59.33L73.149,69A56.9,56.9,0,0,0,81.164,56.9,24.749,24.749,0,0,0,83.5,46.691q0-9.138-5.2-14.148t-14.591-5.01a20.963,20.963,0,0,0-10.98,2.9,19.734,19.734,0,0,0-7.494,8,24.077,24.077,0,0,0-2.651,11.272H54.7a13.336,13.336,0,0,1,2.359-8.234,7.638,7.638,0,0,1,6.45-3.131,7.031,7.031,0,0,1,5.845,2.575A11.084,11.084,0,0,1,71.4,47.99a14.905,14.905,0,0,1-1.941,6.958,53.645,53.645,0,0,1-5.991,8.581L43.8,86.815V96H85.464V85.192Z" transform="translate(-1.5 -1.5)"/>
</svg>
