<svg xmlns="http://www.w3.org/2000/svg" width="125" height="125" viewBox="0 0 125 125">
  <defs>
    <style>
      .cls-1 {
        fill: #e8de1d;
        fill-rule: evenodd;
      }
    </style>
  </defs>
  <path id="_3" data-name="3" class="cls-1" d="M64,1.5A62.5,62.5,0,1,1,1.5,64,62.5,62.5,0,0,1,64,1.5ZM54.074,69.776h6.388q10.02,0,10.019,10.112a9.239,9.239,0,0,1-2.442,6.7A8.935,8.935,0,0,1,61.3,89.12a8.887,8.887,0,0,1-6.325-2.412A8.145,8.145,0,0,1,52.4,80.492H40.339q0,8.767,5.782,14.1T61,99.928q9.727,0,15.635-5.427t5.907-14.426a17.969,17.969,0,0,0-2.526-9.648A15.308,15.308,0,0,0,72.359,64.3a17.015,17.015,0,0,0,6.68-5.984,15.289,15.289,0,0,0,2.547-8.535q0-9-5.469-14.125T61,30.533A21.946,21.946,0,0,0,50.838,32.9a17.51,17.51,0,0,0-9.748,16.05H53.155a7.059,7.059,0,0,1,2.338-5.5,8.339,8.339,0,0,1,5.8-2.111,7.989,7.989,0,0,1,6.033,2.273,8.779,8.779,0,0,1,2.192,6.355,9.972,9.972,0,0,1-2.213,6.773q-2.213,2.552-6.8,2.551H54.074V69.776Z" transform="translate(-1.5 -1.5)"/>
</svg>
