<svg xmlns="http://www.w3.org/2000/svg" width="125" height="125" viewBox="0 0 125 125">
  <defs>
    <style>
      .cls-1 {
        fill: #09c293;
        fill-rule: evenodd;
      }
    </style>
  </defs>
  <path id="_5" data-name="5" class="cls-1" d="M64,1.5A62.5,62.5,0,1,1,1.5,64,62.5,62.5,0,0,1,64,1.5ZM54.2,65.431l1.169-1.206a9.781,9.781,0,0,1,6.972-2.5,8.869,8.869,0,0,1,7.222,3.062q2.546,3.062,2.547,8.814,0,5.984-2.213,9.254a7.163,7.163,0,0,1-6.3,3.27,7.919,7.919,0,0,1-5.949-2.343,10.418,10.418,0,0,1-2.651-6.564H43.05a20.518,20.518,0,0,0,2.9,10.251A18.775,18.775,0,0,0,53.4,94.446a21.642,21.642,0,0,0,10.228,2.482A20.448,20.448,0,0,0,74.57,94.075a18.668,18.668,0,0,0,7.118-8.025,26.725,26.725,0,0,0,2.484-11.713q0-10.761-4.926-16.746t-13.61-5.984a17.631,17.631,0,0,0-9.143,2.551L58,39.64H82.168V28.461H48.1L44.595,62.787Z" transform="translate(-1.5 -1.5)"/>
</svg>
