<svg xmlns="http://www.w3.org/2000/svg" width="125" height="125" viewBox="0 0 125 125">
  <defs>
    <style>
      .cls-1 {
        fill: #0869ab;
        fill-rule: evenodd;
      }
    </style>
  </defs>
  <path id="_6" data-name="6" class="cls-1" d="M64,1.5A62.5,62.5,0,1,1,1.5,64,62.5,62.5,0,0,1,64,1.5Zm9.526,25.265a29.042,29.042,0,0,0-16.219,4.662A29.5,29.5,0,0,0,46.578,44.462a47.44,47.44,0,0,0-3.736,19.413V68.7q0,12.385,5.907,19.807a18.866,18.866,0,0,0,15.509,7.422A19.3,19.3,0,0,0,82.147,84.656a27.133,27.133,0,0,0,2.567-11.921q0-10.3-4.676-16.606a14.889,14.889,0,0,0-12.608-6.309A15.631,15.631,0,0,0,55.2,55.293q1-8.164,5.991-12.756t13.171-4.731H75.53V26.765h-2ZM70.27,64.007a14.938,14.938,0,0,1,2.421,8.89,14.968,14.968,0,0,1-2.4,8.82,7.363,7.363,0,0,1-6.283,3.4,7.484,7.484,0,0,1-6.68-3.773q-2.38-3.773-2.38-10.487V66.785a9.939,9.939,0,0,1,3.507-4.468,8.947,8.947,0,0,1,5.3-1.69A7.615,7.615,0,0,1,70.27,64.007Z" transform="translate(-1.5 -1.5)"/>
</svg>
