<svg xmlns="http://www.w3.org/2000/svg" width="125" height="125" viewBox="0 0 125 125">
  <defs>
    <style>
      .cls-1 {
        fill: #870bcc;
        fill-rule: evenodd;
      }
    </style>
  </defs>
  <path id="_8" data-name="8" class="cls-1" d="M64,1.5A62.5,62.5,0,1,1,1.5,64,62.5,62.5,0,0,1,64,1.5ZM78.221,35.613q-5.2-5.079-14.048-5.079-8.892,0-14.069,5.126T44.927,49.413a17.148,17.148,0,0,0,2.192,8.721,16.484,16.484,0,0,0,6.074,6.077A17.91,17.91,0,0,0,46.221,70.7a18.191,18.191,0,0,0-2.588,9.788q0,8.953,5.553,14.194t15.029,5.242q9.477,0,14.988-5.219t5.511-14.218a17.71,17.71,0,0,0-9.6-16.282,16.649,16.649,0,0,0,6.1-6.077,17.023,17.023,0,0,0,2.213-8.721Q83.419,40.692,78.221,35.613ZM70.372,86.568a7.758,7.758,0,0,1-6.158,2.551,7.787,7.787,0,0,1-6.262-2.644A10.356,10.356,0,0,1,55.7,79.518a10.356,10.356,0,0,1,2.3-7.074,7.752,7.752,0,0,1,6.137-2.621,7.768,7.768,0,0,1,6.179,2.644,10.378,10.378,0,0,1,2.3,7.051A10.346,10.346,0,0,1,70.372,86.568ZM69.5,56.556a6.924,6.924,0,0,1-10.583,0,10.417,10.417,0,0,1-1.879-6.494,9.9,9.9,0,0,1,1.879-6.4,6.39,6.39,0,0,1,5.26-2.319,6.358,6.358,0,0,1,5.3,2.389,9.958,9.958,0,0,1,1.879,6.332A10.5,10.5,0,0,1,69.5,56.556Z" transform="translate(-1.5 -1.5)"/>
</svg>
