<svg xmlns="http://www.w3.org/2000/svg" width="128" height="128" viewBox="0 0 128 128">
  <defs>
    <style>
      .cls-1 {
        fill: #bd0c7d;
        fill-rule: evenodd;
      }
    </style>
  </defs>
  <path id="_9" data-name="9" class="cls-1" d="M64,1.5A62.5,62.5,0,1,1,1.5,64,62.5,62.5,0,0,1,64,1.5ZM54.988,87.424l-2.672.046V98.649L55.28,98.6q13.86-.65,21.417-10.3t7.556-26.533V56.809a37.792,37.792,0,0,0-2.63-14.333,21.542,21.542,0,0,0-7.264-9.6,17.927,17.927,0,0,0-10.688-3.34,18.681,18.681,0,0,0-10.52,3.085,20.53,20.53,0,0,0-7.285,8.628,28.227,28.227,0,0,0-2.609,12.177q0,10.437,4.843,16.583A15.593,15.593,0,0,0,61,76.152,14.522,14.522,0,0,0,72.021,71Q70.727,86.636,54.988,87.424h0Zm2.568-25.072a16.517,16.517,0,0,1-2.275-9.069,16.974,16.974,0,0,1,2.338-9.254q2.338-3.688,5.97-3.688A7.1,7.1,0,0,1,69.851,44.1q2.338,3.757,2.338,10.576v5.52a10.9,10.9,0,0,1-3.194,4.036,7.857,7.857,0,0,1-5.031,1.67A7.2,7.2,0,0,1,57.556,62.352Z"/>
</svg>
